<svg height="290" width="290" xmlns="http://www.w3.org/2000/svg" xmlns:xlink="http://www.w3.org/1999/xlink"><mask id="a" fill="#fff"><circle cx="145" cy="145" fill="#fff" fill-rule="evenodd" r="145"/></mask><mask id="b" fill="#fff"><circle cx="145" cy="145" fill="#fff" fill-rule="evenodd" r="145"/></mask><g fill="none" fill-rule="nonzero"><circle cx="145" cy="145" fill="#def4fc" r="145"/><path d="m154 253c6.627 0 12 5.373 12 12s-5.373 12-12 12h-20c-6.627 0-12-5.373-12-12s5.373-12 12-12zm86-48c6.627 0 12 5.373 12 12s-5.373 12-12 12h-62c-6.627 0-12-5.373-12-12s5.373-12 12-12zm-110 0c6.627 0 12 5.373 12 12s-5.373 12-12 12-12-5.373-12-12 5.373-12 12-12zm-45-60c0-6.627-5.373-12-12-12h-71c-6.627 0-12-5.373-12-12s5.373-12 12-12h49c6.627 0 12-5.373 12-12s-5.373-12-12-12h-5c-6.627 0-12-5.373-12-12s5.373-12 12-12h73c6.627 0 12 5.373 12 12s-5.373 12-12 12h-20v.01c-6.395.262-11.5 5.53-11.5 11.99s5.105 11.728 11.5 11.99v.01h45c6.627 0 12 5.373 12 12s-5.373 12-12 12h-2l-.001.01c-6.395.263-11.499 5.53-11.499 11.99s5.104 11.727 11.499 11.99l.001.01h52c6.627 0 12 5.373 12 12s-5.373 12-12 12h-124c-6.627 0-12-5.373-12-12s5.373-12 12-12h3c6.627 0 12-5.373 12-12zm160 12c6.627 0 12 5.373 12 12s-5.373 12-12 12-12-5.373-12-12 5.373-12 12-12zm-223 0c6.627 0 12 5.373 12 12s-5.373 12-12 12h-20c-6.627 0-12-5.373-12-12s5.373-12 12-12zm199-96c6.627 0 12 5.373 12 12s-5.373 12-12 12h-20c-6.627 0-12-5.373-12-12s5.373-12 12-12zm24-48c6.627 0 12 5.373 12 12s-5.373 12-12 12h-58c-6.627 0-12-5.373-12-12s5.373-12 12-12z" fill="#b1d5e2" mask="url(#a)"/><path d="m146 0h145v290h-145z" fill="#000" mask="url(#b)" opacity=".078"/></g></svg>